<?xml version="1.0" standalone="no"?>
<!DOCTYPE svg PUBLIC "-//W3C//DTD SVG 20010904//EN"
 "http://www.w3.org/TR/2001/REC-SVG-20010904/DTD/svg10.dtd">
<svg version="1.0" xmlns="http://www.w3.org/2000/svg"
 width="555.000000pt" height="553.000000pt" viewBox="0 0 555.000000 553.000000"
 preserveAspectRatio="xMidYMid meet">

<g transform="translate(0.000000,553.000000) scale(0.100000,-0.100000)"
fill="#000000" stroke="none">
<path d="M5095 5323 c-80 -46 -232 -156 -330 -238 -161 -134 -277 -244 -631
-596 l-361 -360 -36 21 c-26 16 -45 20 -66 15 -21 -4 -118 -95 -348 -325 -174
-175 -321 -330 -326 -343 -8 -24 1 -55 25 -89 11 -16 3 -27 -59 -89 l-72 -71
-27 21 c-32 25 -71 27 -102 5 -13 -9 -99 -92 -193 -186 -154 -155 -169 -173
-169 -205 0 -19 8 -48 17 -64 l17 -28 -109 -111 c-83 -83 -114 -108 -128 -104
-30 10 -101 -23 -120 -55 -9 -16 -17 -47 -17 -68 0 -54 -35 -88 -74 -73 -73
27 -162 -4 -196 -70 -22 -43 -26 -110 -9 -142 10 -18 -5 -36 -139 -170 -134
-133 -153 -148 -171 -139 -31 17 -103 13 -141 -8 -65 -34 -98 -130 -68 -197
12 -26 9 -30 -96 -131 -102 -98 -118 -109 -240 -168 -117 -57 -437 -183 -508
-200 -21 -6 -38 0 -75 24 -64 42 -104 42 -149 -3 -25 -25 -34 -43 -34 -67 0
-30 38 -71 442 -477 255 -256 457 -450 476 -458 27 -12 37 -12 66 0 72 30 85
94 34 171 l-32 49 38 110 c57 165 132 348 189 461 50 97 58 107 282 332 l230
233 45 0 c56 0 105 25 144 74 23 28 31 49 34 94 l4 58 204 204 204 203 39 -18
c26 -11 49 -15 68 -11 19 5 136 115 354 333 277 276 330 324 348 318 41 -13
87 14 169 99 80 82 82 85 82 132 0 50 -14 73 -65 109 -19 13 -4 29 261 295
l281 280 47 -21 c46 -20 50 -20 91 -5 27 11 66 42 113 91 84 88 96 122 63 187
l-20 42 253 255 c263 265 396 409 523 568 85 107 193 263 218 317 l18 38 -94
94 c-51 52 -98 94 -104 93 -5 0 -37 -16 -70 -36z m106 -95 c78 -76 77 -68 23
-150 -64 -100 -190 -263 -226 -293 -85 -72 -237 18 -238 141 0 53 18 76 128
161 85 67 252 182 263 183 3 0 26 -19 50 -42z m-502 -377 c18 -61 83 -128 146
-149 28 -10 52 -20 55 -24 6 -9 -170 -206 -185 -207 -13 -1 -245 231 -244 244
1 15 203 195 210 187 3 -4 11 -27 18 -51z m-159 -316 l125 -125 -33 -32 -32
-33 -127 127 -127 127 29 31 c16 16 31 30 35 30 3 0 61 -56 130 -125z m-117
-113 c64 -64 117 -122 117 -128 0 -5 -62 -72 -138 -147 -100 -99 -145 -137
-162 -137 -14 0 -40 15 -62 37 l-38 37 21 23 c18 18 29 21 63 17 82 -10 148
65 126 145 -25 93 -133 117 -201 45 -20 -21 -24 -36 -24 -84 0 -52 -15 -90
-35 -90 -8 0 -100 90 -100 98 0 11 294 302 305 302 6 0 63 -53 128 -118z
m-153 -156 c6 -8 10 -25 8 -38 -2 -18 -10 -24 -35 -26 -37 -4 -56 20 -42 56
10 26 50 30 69 8z m-222 -199 l112 -112 -55 -55 c-35 -34 -57 -66 -61 -85 -4
-25 -160 -186 -759 -785 -481 -481 -757 -750 -765 -745 -8 5 -6 13 8 29 44 48
54 104 28 154 -8 16 -49 61 -91 101 l-77 73 51 51 51 52 22 -23 c17 -17 22
-31 19 -63 -6 -83 37 -129 120 -129 56 0 109 50 109 104 0 81 -57 132 -136
123 -33 -3 -45 0 -58 14 -9 11 -16 23 -16 27 0 4 31 39 70 77 68 67 70 68 89
51 16 -14 20 -31 20 -71 -1 -62 11 -90 49 -109 82 -42 167 -4 179 80 11 82
-49 141 -133 131 -42 -4 -74 12 -74 39 0 5 31 41 70 79 l69 69 22 -20 c17 -15
20 -27 16 -59 -4 -25 0 -51 10 -72 48 -103 205 -80 220 33 11 82 -50 142 -132
130 -33 -4 -46 -1 -59 13 -9 10 -16 22 -16 27 0 5 31 40 69 78 67 67 70 68 88
51 13 -13 18 -34 18 -70 0 -63 23 -101 73 -122 67 -28 147 16 158 89 14 81
-53 148 -135 134 -35 -5 -71 14 -71 38 0 6 53 64 118 129 l118 118 22 -24 c18
-20 22 -31 17 -63 -4 -29 -1 -47 14 -71 81 -129 265 -30 206 110 -20 47 -70
72 -127 63 -30 -5 -43 -2 -60 14 l-22 20 59 60 c33 33 64 60 71 60 24 0 43
-35 38 -71 -14 -82 53 -149 134 -135 73 11 117 91 89 158 -20 48 -59 73 -116
73 -28 0 -56 7 -71 18 l-24 17 74 75 74 75 23 -22 c18 -17 23 -32 23 -74 0
-45 4 -57 30 -82 70 -70 184 -32 197 65 11 80 -51 141 -131 130 -33 -5 -45 -2
-64 16 l-22 21 52 53 c29 29 55 53 58 53 3 0 56 -51 118 -113z m-342 12 c6
-10 -121 -149 -136 -149 -3 0 -12 5 -20 10 -12 8 -2 23 55 80 69 69 87 80 101
59z m233 -119 c25 -13 33 -37 21 -61 -12 -21 -50 -25 -68 -7 -18 18 -15 55 6
67 21 13 20 13 41 1z m359 -32 c24 -24 11 -53 -55 -120 -67 -67 -96 -81 -121
-56 -22 22 -12 43 60 115 72 73 93 84 116 61z m-844 -117 c-32 -34 -64 -61
-71 -61 -30 0 -16 30 40 87 54 55 63 61 76 48 13 -13 7 -22 -45 -74z m294 -63
c19 -19 14 -56 -8 -68 -38 -21 -80 22 -60 61 12 21 50 25 68 7z m-533 -178
c-66 -66 -124 -119 -128 -120 -4 0 -10 7 -14 16 -4 11 29 51 113 135 106 107
120 117 134 103 13 -13 3 -27 -105 -134z m360 -30 c0 -33 -2 -35 -35 -35 -29
0 -36 4 -38 23 -6 40 5 54 40 50 30 -3 33 -6 33 -38z m-316 -260 c25 -13 33
-37 21 -61 -12 -21 -50 -25 -68 -7 -18 18 -15 55 6 67 21 13 20 13 41 1z
m-432 -76 c4 -11 -16 -38 -63 -85 -38 -38 -72 -69 -77 -69 -4 0 -10 7 -14 16
-4 11 16 38 63 85 38 38 72 69 77 69 4 0 10 -7 14 -16z m243 -134 c38 -38 -14
-94 -56 -60 -19 17 -18 57 4 69 24 15 29 14 52 -9z m428 -22 c25 -25 11 -54
-57 -122 -57 -57 -73 -67 -97 -64 -23 2 -30 8 -32 31 -3 24 8 40 66 98 67 68
96 81 120 57z m-871 -44 c4 -11 -16 -38 -63 -85 -38 -38 -72 -69 -77 -69 -4 0
-10 7 -14 16 -4 11 16 38 63 85 38 38 72 69 77 69 4 0 10 -7 14 -16z m232
-124 c25 -13 33 -37 21 -61 -12 -21 -50 -25 -68 -7 -18 18 -15 55 6 67 21 13
20 13 41 1z m69 -357 c-183 -183 -326 -319 -331 -314 -5 5 -4 17 1 27 6 11
151 158 322 329 246 245 313 307 320 295 7 -12 -61 -85 -312 -337z m-253 147
c37 -41 -24 -97 -63 -58 -18 18 -15 55 6 67 25 15 37 13 57 -9z m-248 -172
c40 -40 73 -79 73 -87 0 -8 -10 -25 -22 -38 l-22 -24 -78 78 c-77 77 -92 105
-66 131 22 22 43 12 115 -60z m-158 -72 l74 -75 -19 -28 c-10 -15 -17 -32 -16
-36 5 -19 -38 17 -107 87 -70 71 -74 77 -63 101 20 44 50 32 131 -49z m-102
-127 c32 -33 59 -65 61 -70 2 -5 -24 -36 -58 -69 l-61 -60 -24 26 c-19 20 -22
31 -15 45 12 21 12 96 0 124 -5 14 -2 26 13 43 11 12 22 22 23 22 1 0 29 -27
61 -61z m-186 -8 c17 -17 29 -40 29 -55 0 -33 -4 -33 -43 4 -35 33 -47 36 -65
18 -19 -19 -14 -42 13 -68 32 -30 32 -40 0 -40 -59 0 -94 78 -59 128 33 48 84
53 125 13z m459 -36 l34 -35 -209 -210 c-165 -165 -213 -208 -230 -204 -11 2
-42 -2 -70 -10 -27 -9 -51 -13 -54 -10 -5 4 477 499 490 502 3 1 20 -14 39
-33z m-551 -175 c22 -6 49 -6 79 1 37 8 48 7 63 -7 11 -9 19 -21 19 -26 0 -11
-448 -458 -459 -458 -5 0 -16 9 -25 19 -15 16 -16 25 -6 59 7 29 7 54 0 88
l-11 48 143 143 c78 79 147 143 153 143 6 0 25 -4 44 -10z m-424 -305 c16 -16
25 -35 25 -57 l0 -32 -33 32 c-36 35 -58 40 -77 17 -15 -19 -5 -50 26 -74 30
-24 30 -31 0 -31 -41 0 -80 41 -80 85 0 74 88 112 139 60z m390 -62 c-18 -44
-26 -85 -19 -105 5 -17 -19 -46 -137 -164 -79 -79 -148 -144 -154 -144 -6 0
-64 54 -130 120 -103 103 -118 123 -108 138 6 9 17 15 25 13 33 -11 118 -12
138 -1 20 11 27 7 68 -34 25 -25 50 -46 55 -46 6 0 65 54 131 120 118 117 146
138 131 103z m185 -9 c0 -36 -71 -107 -102 -102 -17 2 -24 11 -26 31 -5 39 54
97 97 97 27 0 31 -4 31 -26z m-670 -339 l125 -125 -33 -32 -32 -33 -127 127
-127 127 29 31 c16 16 31 30 35 30 3 0 61 -56 130 -125z m-117 -113 l129 -129
-27 -39 c-54 -79 -129 -248 -215 -484 -29 -80 -54 -147 -57 -150 -2 -2 -113
105 -247 239 -221 221 -246 243 -270 237 -57 -14 -37 -39 275 -352 298 -298
327 -334 272 -334 -23 0 -873 849 -873 873 0 30 27 30 65 2 70 -54 119 -45
430 75 129 50 349 155 366 176 6 8 14 14 18 14 3 0 64 -58 134 -128z"/>
<path d="M4807 4983 c-20 -19 -2 -54 62 -117 52 -52 74 -67 92 -64 16 2 25 11
27 26 3 17 -14 41 -64 92 -63 65 -97 84 -117 63z"/>
<path d="M3355 3400 c-7 -23 10 -50 31 -50 25 0 45 30 34 51 -14 26 -57 25
-65 -1z"/>
</g>
</svg>
